<!DOCTYPE svg PUBLIC "-//W3C//DTD SVG 1.1//EN" "http://www.w3.org/Graphics/SVG/1.1/DTD/svg11.dtd">
<!-- Uploaded to: SVG Repo, www.svgrepo.com, Transformed by: SVG Repo Mixer Tools -->
<svg fill="#ffffff" width="197px" height="197px" viewBox="0 0 16.26 16.26" id="lab-16px" xmlns="http://www.w3.org/2000/svg" stroke="#ffffff" stroke-width="0.00016264">
<g id="SVGRepo_bgCarrier" stroke-width="0"/>
<g id="SVGRepo_tracerCarrier" stroke-linecap="round" stroke-linejoin="round" stroke="#CCCCCC" stroke-width="0.357808"/>
<g id="SVGRepo_iconCarrier"> <path id="Path_84" data-name="Path 84" d="M-8.121,13.668-13,6.349V1h1.5A.5.5,0,0,0-11,.5a.5.5,0,0,0-.5-.5h-9a.5.5,0,0,0-.5.5.5.5,0,0,0,.5.5H-19V6.349l-4.879,7.319a1.5,1.5,0,0,0-.075,1.54A1.5,1.5,0,0,0-22.631,16H-9.369a1.5,1.5,0,0,0,1.323-.792A1.5,1.5,0,0,0-8.121,13.668ZM-14,1V6.5a.5.5,0,0,0,.084.277L-13.1,8h-5.8l.815-1.223A.5.5,0,0,0-18,6.5V1Zm5.072,13.736A.489.489,0,0,1-9.369,15H-22.631a.489.489,0,0,1-.441-.264.488.488,0,0,1,.025-.513l3.489-5.235A.373.373,0,0,0-19.5,9h7a.373.373,0,0,0,.058-.012l3.489,5.235A.488.488,0,0,1-8.928,14.736ZM-14,10a2,2,0,0,0-2,2,2,2,0,0,0,2,2,2,2,0,0,0,2-2A2,2,0,0,0-14,10Zm0,3a1,1,0,0,1-1-1,1,1,0,0,1,1-1,1,1,0,0,1,1,1A1,1,0,0,1-14,13Zm-3-1.5a.5.5,0,0,1-.5.5.5.5,0,0,1-.5-.5.5.5,0,0,1,.5-.5A.5.5,0,0,1-17,11.5ZM-19,13a1,1,0,0,1-1,1,1,1,0,0,1-1-1,1,1,0,0,1,1-1A1,1,0,0,1-19,13Z" transform="translate(24.132)"/> </g>
</svg>